<svg height="546" width="1137" xmlns="http://www.w3.org/2000/svg"><g fill="none" fill-rule="evenodd"><path d="M606.76 135.77c0-8.61 5.2-13.09 13.09-13.09s13.09 4.48 13.09 13.09v107.64c0 8.61-5.2 13.1-13.09 13.1s-13.09-4.49-13.09-13.1zm59.19-13.81c7.526 0 13.628 6.1 13.63 13.627.002 7.526-6.097 13.63-13.623 13.633-7.527.004-13.631-6.094-13.637-13.62 0-7.528 6.102-13.63 13.63-13.63zm-13.09 49.16c0-7 2.87-13.1 13.09-13.1s13.09 6.1 13.09 13.1v72.3c0 7-2.87 13.1-13.09 13.1s-13.09-6.1-13.09-13.1zm44.66-.01c0-7.89 3.59-13.1 11.84-13.1s11.84 5.2 11.84 13.1v3.41h.36c7.36-9.69 16.86-16.51 31.75-16.51 15.79 0 33 7.89 33 34.44v50.95c0 7-2.87 13.1-13.09 13.1s-13.1-6.1-13.1-13.1v-45.73c0-10.59-5.2-18.12-16.5-18.12-11.179.235-20.072 9.45-19.91 20.63v43.23c0 7-2.87 13.1-13.1 13.1s-13.09-6.1-13.09-13.1zm149.96-13.09c21.89 0 38.21 12.38 38.21 24.58 0 7.54-5.56 11.3-12.2 11.3-12.38 0-7.89-15.43-26.73-15.43-10.22 0-22.24 7-22.24 30.68 0 16.32 7.71 26.91 22.06 26.91 18.3 0 14.36-16.86 28.17-16.86 6.64 0 10.94 4.84 10.94 10 0 11.48-12.91 27.27-39.82 27.27-32.29 0-47.54-19.91-47.54-47.36 0-30.14 17-51.13 49.15-51.13zm92.93 0c31.57 0 48.44 21.53 48.44 49.16 0 26.19-12.74 49.33-48.44 49.33s-48.44-23.14-48.44-49.33c0-27.63 16.86-49.16 48.44-49.16zm0 79.11c15.6 0 22.25-14 22.25-30 0-17-7-29.78-22.25-29.78s-22.25 12.74-22.25 29.78c0 16 6.64 30 22.25 30zm62.95-101.36c0-8.61 5.2-13.09 13.1-13.09s13.1 4.48 13.1 13.09v107.64c0 8.61-5.2 13.1-13.1 13.1s-13.1-4.49-13.1-13.1zm44.66 35.34c0-7.89 3.59-13.1 11.84-13.1s11.84 5.2 11.84 13.1v3.41h.36c7.35-9.69 16.86-16.51 31.75-16.51 15.79 0 33 7.89 33 34.44v50.95c0 7-2.87 13.1-13.1 13.1s-13.09-6.1-13.09-13.1v-45.73c0-10.59-5.2-18.12-16.5-18.12-11.179.235-20.072 9.45-19.91 20.63v43.23c0 7-2.87 13.1-13.1 13.1s-13.1-6.1-13.1-13.1zM606.76 294.3c0-8.61 5.2-13.09 13.09-13.09s13.09 4.48 13.09 13.09v107.64c0 8.61-5.2 13.1-13.09 13.1s-13.09-4.49-13.09-13.1zm89.15 22.25c31.57 0 48.44 21.53 48.44 49.16 0 26.19-12.74 49.33-48.44 49.33s-48.44-23.14-48.44-49.33c0-27.63 16.86-49.16 48.44-49.16zm0 79.11c15.61 0 22.25-14 22.25-30 0-17-7-29.78-22.25-29.78s-22.25 12.74-22.25 29.78c0 16 6.64 30 22.25 30zm106.01-79.11c31.57 0 48.44 21.53 48.44 49.16 0 26.19-12.74 49.33-48.44 49.33s-48.44-23.14-48.44-49.33c0-27.63 16.86-49.16 48.44-49.16zm0 79.11c15.61 0 22.24-14 22.24-30 0-17-7-29.78-22.24-29.78s-22.25 12.74-22.25 29.78c0 16 6.64 30 22.25 30zm61.49-66.73c0-8.07 3.77-12.38 11.84-12.38 7.71 0 11.84 4.31 11.84 12.38v4.13h.36c4.31-11.12 14.89-16.51 27.63-16.51 21.88 0 41.08 16 41.08 49.87 0 25.11-12.74 48.62-40.37 48.62-12 0-21-4.84-25.83-13.28h-.36v35c0 8.61-5.21 13.1-13.1 13.1s-13.09-4.5-13.09-13.12zm45.75 8.07c-15.25 0-21 13.63-21 28.52 0 13.45 5 29.24 21 29.06 16.68 0 20.81-16.86 20.81-29.06 0-15.43-6.82-28.16-20.81-28.52z" fill="#292929" fill-rule="nonzero"/><path d="M272.6 0C122.3 0 0 122.3 0 272.6s122.3 272.6 272.6 272.6c151.24 0 273.54-122.29 273.54-272.59C546.14 122.31 423.83 0 272.6 0" fill="#74cdd6"/><path d="M259.97 184.38v92.03a40.48 40.48 0 0 1-6 20c-1.43 2.76-2.8 5-3.65 6.38C248.77 305.2 200 374.6 200 374.6l-19.78 28c-11.31 16.15-27 17.73-41.76 7.36s-18.67-25.61-7.36-41.76l52-74.45 7.17-10.27.72-1a43 43 0 0 0 9-25.23V153.2c0-19.71 11.91-30 30-30s30 10.27 30 30zm147.7 225.57c-14.81 10.37-30.46 8.79-41.76-7.36l-19.78-28s-48.77-69.37-50.25-71.76c-.86-1.38-2.22-3.62-3.65-6.38a40.48 40.48 0 0 1-6-20V153.2c0-19.71 11.91-30 30-30s30 10.27 30 30v103.96a43 43 0 0 0 9 25.23l.72 1 7.17 10.27 52 74.45c11.31 16.15 7.44 31.39-7.36 41.76z" fill="#fff"/></g></svg>